<svg width="270" height="270" viewBox="0 0 270 270" fill="none" xmlns="http://www.w3.org/2000/svg">
<path fill-rule="evenodd" clip-rule="evenodd" d="M134.715 210.085C176.34 210.085 210.085 176.34 210.085 134.715C210.085 93.089 176.34 59.3447 134.715 59.3447C93.089 59.3447 59.3447 93.089 59.3447 134.715C59.3447 176.34 93.089 210.085 134.715 210.085Z" fill="url(#paint0_linear_2074_8310)" fill-opacity="0.1"/>
<mask id="mask0_2074_8310" style="mask-type:alpha" maskUnits="userSpaceOnUse" x="59" y="59" width="152" height="152">
<path fill-rule="evenodd" clip-rule="evenodd" d="M134.715 210.085C176.34 210.085 210.085 176.34 210.085 134.715C210.085 93.089 176.34 59.3447 134.715 59.3447C93.089 59.3447 59.3447 93.089 59.3447 134.715C59.3447 176.34 93.089 210.085 134.715 210.085Z" fill="white"/>
</mask>
<g mask="url(#mask0_2074_8310)">
</g>
<path fill-rule="evenodd" clip-rule="evenodd" d="M269.43 134.715C269.43 209.116 209.116 269.43 134.715 269.43C60.314 269.43 0 209.116 0 134.715C0 60.314 60.314 0 134.715 0C209.116 0 269.43 60.314 269.43 134.715ZM249.994 134.715C249.994 198.382 198.382 249.994 134.715 249.994C71.0482 249.994 19.4361 198.382 19.4361 134.715C19.4361 71.0482 71.0482 19.4361 134.715 19.4361C198.382 19.4361 249.994 71.0482 249.994 134.715Z" fill="white" fill-opacity="0.2"/>
<path fill-rule="evenodd" clip-rule="evenodd" d="M249.857 134.715C249.857 198.307 198.306 249.858 134.715 249.858C71.1233 249.858 19.5723 198.307 19.5723 134.715C19.5723 71.1238 71.1233 19.5728 134.715 19.5728C198.306 19.5728 249.857 71.1238 249.857 134.715ZM229.742 134.715C229.742 187.197 187.197 229.742 134.715 229.742C82.2327 229.742 39.6875 187.197 39.6875 134.715C39.6875 82.2332 82.2327 39.688 134.715 39.688C187.197 39.688 229.742 82.2332 229.742 134.715Z" fill="white" fill-opacity="0.4"/>
<path fill-rule="evenodd" clip-rule="evenodd" d="M229.704 134.715C229.704 187.176 187.176 229.704 134.715 229.704C82.2538 229.704 39.7256 187.176 39.7256 134.715C39.7256 82.2538 82.2538 39.7256 134.715 39.7256C187.176 39.7256 229.704 82.2538 229.704 134.715ZM210.085 134.715C210.085 176.341 176.341 210.085 134.715 210.085C93.0893 210.085 59.3451 176.341 59.3451 134.715C59.3451 93.0893 93.0893 59.3451 134.715 59.3451C176.341 59.3451 210.085 93.0893 210.085 134.715Z" fill="white" fill-opacity="0.6"/>
<path fill-rule="evenodd" clip-rule="evenodd" d="M135 210.5C176.974 210.5 211 176.474 211 134.5C211 92.5264 176.974 58.5 135 58.5C93.0264 58.5 59 92.5264 59 134.5C59 176.474 93.0264 210.5 135 210.5Z" fill="white" fill-opacity="0.8"/>
<path fill-rule="evenodd" clip-rule="evenodd" d="M163.454 34.4214L168.268 43.2238L177.072 48.0388L168.268 52.8538L163.454 61.6562L158.639 52.8538L149.837 48.0388L158.639 43.2238L163.454 34.4214Z" fill="white"/>
<path fill-rule="evenodd" clip-rule="evenodd" d="M41.3199 116.98L43.8282 121.568L48.4162 124.077L43.8282 126.585L41.3199 131.173L38.8117 126.585L34.2246 124.077L38.8117 121.568L41.3199 116.98Z" fill="white"/>
<path fill-rule="evenodd" clip-rule="evenodd" d="M220.607 53.2607L223.115 57.8478L227.703 60.357L223.115 62.8653L220.607 67.4534L218.099 62.8653L213.512 60.357L218.099 57.8478L220.607 53.2607Z" fill="white"/>
<defs>
<linearGradient id="paint0_linear_2074_8310" x1="257.778" y1="134.689" x2="134.513" y2="10.957" gradientUnits="userSpaceOnUse">
<stop stop-color="white" stop-opacity="0.4"/>
<stop offset="1" stop-color="white" stop-opacity="0.6"/>
</linearGradient>
</defs>
</svg>
