<?xml version="1.0" encoding="utf-8"?>
<!-- Generator: Adobe Illustrator 25.0.0, SVG Export Plug-In . SVG Version: 6.00 Build 0)  -->
<svg version="1.1" id="Laag_1" xmlns="http://www.w3.org/2000/svg" xmlns:xlink="http://www.w3.org/1999/xlink" x="0px" y="0px"
	 viewBox="0 0 40 44.6" style="enable-background:new 0 0 40 44.6;" xml:space="preserve">
<style type="text/css">
	.st0{fill:#FFFFFF;stroke:#000000;stroke-miterlimit:10;}
	.st1{fill:#FFFFFF;}
</style>
<path class="st0" d="M9.1,4.6h21.7c5.1,0,9.1,4.1,9.1,9.1v21.7c0,5.1-4.1,9.2-9.1,9.2H9.1C4,44.6,0,40.5,0,35.4V13.7
	C0,8.7,4.1,4.6,9.1,4.6z"/>
<g>
	<path class="st1" d="M22,24.3c0-3.1,0-6.1,0-9.2c0-0.2,0-0.5-0.1-0.7c-0.2-1-0.7-1.8-1.6-2.3c-0.8-0.5-1.8-0.6-2.7-0.4
		C17,11.7,16.4,12,16,12.4c-0.7,0.7-1.1,1.5-1.1,2.5c0,0.7,0.1,1.4,0.5,2.1c0.3,0.6,0.7,1,1.3,1.3c0.3,0.1,0.6,0.3,1,0.4
		c0.3,0.1,0.7,0.1,1-0.1c0.2-0.2,0.4-0.4,0.4-0.7c0-0.4-0.3-0.7-0.7-0.8c-0.7-0.2-1.3-0.6-1.5-1.3c-0.1-0.3-0.2-0.6-0.1-0.9
		c0.1-0.4,0.3-0.8,0.6-1c0.4-0.4,1-0.5,1.6-0.4c0.6,0.1,1,0.5,1.3,1c0.2,0.3,0.3,0.6,0.3,1c0,6.2,0,12.4,0,18.5c0,0,0,0.1,0,0.1
		c0,0.2,0.1,0.3,0.2,0.5c0.2,0.3,0.7,0.4,1.1,0.3c0.3-0.1,0.5-0.4,0.5-0.8C22,30.6,22,27.4,22,24.3z"/>
	<path d="M31,21.3c0,0.1,0,0.2,0,0.3c-0.1,0.8-0.5,1.6-1.1,2.2c-0.3,0.3-0.7,0.5-1.2,0.7c-0.2,0.1-0.4,0.1-0.6,0.2
		c-0.5,0.1-1-0.2-1.1-0.6c-0.1-0.2,0-0.4,0-0.6c0.1-0.3,0.4-0.5,0.7-0.5c0.6-0.1,1.1-0.5,1.4-1c0.1-0.2,0.2-0.5,0.2-0.8
		c0-0.2,0-0.3-0.1-0.5c-0.1-0.4-0.3-0.8-0.7-1c-0.4-0.3-0.8-0.4-1.3-0.4c-0.8,0.1-1.4,0.5-1.7,1.3c-0.1,0.2-0.1,0.4-0.1,0.6
		c0,4.7,0,9.4,0,14.1c0,0.5-0.4,0.9-0.9,0.9c-0.3,0-0.6-0.1-0.7-0.4c-0.1-0.1-0.1-0.3-0.1-0.4c0-1.9,0-3.7,0-5.6c0-2.9,0-5.8,0-8.7
		c0-1.5,0.9-2.7,2.3-3.2c0.8-0.3,1.7-0.3,2.6-0.1c1.2,0.4,2,1.2,2.3,2.4c0.1,0.2,0.1,0.4,0.1,0.6c0,0,0,0,0,0C31,21,31,21.1,31,21.3
		z"/>
	<path d="M17.2,37.7c-0.1,0-0.1,0-0.2,0c-0.3-0.1-0.6-0.4-0.6-0.7c0,0,0-0.1,0-0.1c0-4.5,0-8.9,0-13.4c0-0.3-0.1-0.6-0.2-0.8
		c-0.2-0.4-0.5-0.8-0.9-1c-0.6-0.3-1.3-0.2-1.9,0.2c-0.3,0.3-0.5,0.6-0.7,1c-0.2,0.4-0.1,0.8,0.1,1.1c0.3,0.6,0.8,1,1.5,1.2
		c0.4,0.1,0.7,0.4,0.8,0.8c0,0.1,0,0.2,0,0.2c-0.1,0.3-0.3,0.5-0.5,0.6c-0.3,0.1-0.6,0.1-0.8,0c-0.3-0.1-0.7-0.2-1-0.4
		c-0.5-0.3-0.9-0.7-1.2-1.3c-0.3-0.5-0.4-1.1-0.5-1.7c0,0,0,0,0-0.1c0-0.1,0-0.3,0-0.4c0-0.1,0-0.2,0-0.4c0.2-1.1,0.8-2,1.8-2.6
		c0.6-0.3,1.2-0.4,1.9-0.4c0.6,0,1.1,0.1,1.6,0.4c1,0.5,1.6,1.3,1.8,2.4c0,0.2,0.1,0.5,0.1,0.7c0,4.5,0,9,0,13.5
		c0,0.2-0.1,0.5-0.2,0.7c-0.1,0.1-0.3,0.2-0.4,0.2c0,0,0,0-0.1,0C17.3,37.7,17.2,37.7,17.2,37.7z"/>
	<path d="M22,24.3c0,3.2,0,6.4,0,9.5c0,0.4-0.2,0.7-0.5,0.8c-0.4,0.2-0.9,0-1.1-0.3c-0.1-0.1-0.2-0.3-0.2-0.5c0,0,0-0.1,0-0.1
		c0-6.2,0-12.4,0-18.5c0-0.4-0.1-0.7-0.3-1c-0.3-0.5-0.7-0.9-1.3-1c-0.6-0.1-1.1,0-1.6,0.4c-0.3,0.3-0.5,0.7-0.6,1
		c-0.1,0.3,0,0.6,0.1,0.9c0.3,0.7,0.8,1.2,1.5,1.3c0.4,0.1,0.7,0.4,0.7,0.8c0,0.3-0.1,0.5-0.4,0.7c-0.3,0.2-0.6,0.3-1,0.1
		c-0.3-0.1-0.7-0.2-1-0.4c-0.6-0.3-1-0.8-1.3-1.3c-0.3-0.6-0.5-1.3-0.5-2.1c0.1-1,0.4-1.8,1.1-2.5c0.5-0.4,1-0.7,1.6-0.8
		c0.9-0.2,1.9,0,2.7,0.4c0.9,0.5,1.4,1.3,1.6,2.3c0,0.2,0.1,0.5,0.1,0.7C22,18.1,22,21.2,22,24.3z"/>
</g>
</svg>
