<?xml version="1.0" encoding="utf-8"?>
<!-- Generator: Adobe Illustrator 25.0.0, SVG Export Plug-In . SVG Version: 6.00 Build 0)  -->
<svg version="1.1" id="Laag_1" xmlns="http://www.w3.org/2000/svg" xmlns:xlink="http://www.w3.org/1999/xlink" x="0px" y="0px"
	 viewBox="0 0 40 44.6" style="enable-background:new 0 0 40 44.6;" xml:space="preserve">
<style type="text/css">
	.st0{fill:#324242;}
	.st1{fill:#386362;}
	.st2{fill:#FFFFFF;stroke:#FFFFFF;stroke-miterlimit:10;}
	.st3{fill:#386362;stroke:#FFFFFF;stroke-miterlimit:10;}
</style>
<path class="st0" d="M9.1,4.6h21.7c5.1,0,9.1,4.1,9.1,9.1v21.7c0,5.1-4.1,9.2-9.1,9.2H9.1c-5.1,0-9.1-4.1-9.1-9.2V13.7
	C0,8.7,4.1,4.6,9.1,4.6z"/>
<path class="st1" d="M9.1,0h21.7C35.9,0,40,4.1,40,9.1v21.7c0,5.1-4.1,9.1-9.1,9.1H9.1C4.1,40,0,35.9,0,30.9V9.1C0,4.1,4.1,0,9.1,0z
	"/>
<image style="overflow:visible;" width="225" height="225" xlink:href="DEA4E681.jpg"  transform="matrix(5.588653e-02 0 0 5.588653e-02 118.5745 -91.0213)">
</image>
<path class="st2" d="M9.2,12.1L12,9.4l1.8,1.7c0,0,2.9-1.6,4.1-1.7c0-2,0-2.4,0-2.4H22v2.3c0,0,2.7,0.4,4.1,1.8
	C27.3,9.9,28,9.3,28,9.3l2.8,2.9l-1.7,1.8c0,0,1.6,2.3,1.7,3.9c1.9,0,2.5,0,2.5,0v4.1h-2.5c0,0-0.1,2.2-1.7,4.1
	c1.7,1.7,1.7,1.7,1.7,1.7l-2.8,2.8l-1.6-1.5c0,0-2.4,1.6-4.2,1.7C22.1,33,22.1,33,22.1,33H18l0-2.2c0,0-2.7-0.4-4.2-1.7
	c-1.7,1.6-1.7,1.6-1.7,1.6l-3-2.6l1.9-1.9c0,0-1.6-2.4-1.7-4.2c-2.7,0-2.7,0-2.7,0v-4h2.6c0,0,0.6-2.9,1.6-4
	C9.5,12.6,9.2,12.1,9.2,12.1z"/>
<circle class="st3" cx="20" cy="20" r="5.8"/>
</svg>
