<?xml version="1.0" encoding="utf-8"?>
<!-- Generator: Adobe Illustrator 25.0.0, SVG Export Plug-In . SVG Version: 6.00 Build 0)  -->
<svg version="1.1" id="Laag_1" xmlns="http://www.w3.org/2000/svg" xmlns:xlink="http://www.w3.org/1999/xlink" x="0px" y="0px"
	 viewBox="0 0 40.9 45" style="enable-background:new 0 0 40.9 45;" xml:space="preserve">
<style type="text/css">
	.st0{fill:#960000;}
	.st1{fill:#FF0000;}
	.st2{fill:none;stroke:#FFFFFF;stroke-width:3;stroke-miterlimit:10;}
	.st3{fill:#FFFFFF;}
</style>
<path class="st0" d="M9.2,4.6h21.7c5.1,0,9.2,4.1,9.2,9.1v21.7c0,5.1-4.1,9.2-9.2,9.2H9.2c-5.1,0-9.2-4.1-9.2-9.2V13.7
	C0,8.7,4.1,4.6,9.2,4.6z"/>
<path class="st1" d="M9.2,0h21.7C35.9,0,40,4.1,40,9.2v21.7c0,5.1-4.1,9.2-9.2,9.2H9.2C4.1,40,0,35.9,0,30.9V9.2C0,4.1,4.1,0,9.2,0z
	"/>
<circle class="st2" cx="19.7" cy="19.7" r="13.3"/>
<rect x="16.6" y="1.2" class="st1" width="6.6" height="10"/>
<rect x="18" y="2.8" class="st3" width="3.4" height="7.4"/>
</svg>
