<svg width="145" height="255" viewBox="0 0 145 255" fill="none" xmlns="http://www.w3.org/2000/svg">
<mask id="mask0_1924_8217" style="mask-type:alpha" maskUnits="userSpaceOnUse" x="87" y="0" width="58" height="212">
<path fill-rule="evenodd" clip-rule="evenodd" d="M87 0.000488281H144.475V211.727H87V0.000488281Z" fill="white"/>
</mask>
<g mask="url(#mask0_1924_8217)">
<path fill-rule="evenodd" clip-rule="evenodd" d="M121.808 8.73049C117.008 14.6085 119.791 15.3595 121.208 20.8675C118.967 19.6485 116.837 18.6575 114.328 17.7735C109.272 27.5935 103.931 37.2355 99.363 47.2735C103.778 52.6745 109.291 56.5935 115.226 59.9465C108.533 58.0225 103.001 54.5305 98.012 50.3095C95.919 55.1255 94.021 60.0435 92.443 65.1295C92.254 65.7365 92.04 66.3995 91.813 67.1005C95.11 73.4535 100.684 78.4755 106.12 82.5115C100.233 79.1855 94.757 75.3035 90.813 70.3035C89.448 74.9355 88.335 80.3625 90.24 84.1255C92.61 88.8045 103.688 95.9035 108.14 98.8465C101.225 98.5745 95.612 95.5525 89.02 94.2095C87.9 102.475 86.821 112.211 87.025 121.73C91.92 124.947 97.287 127.527 103.474 129.001C97.752 128.709 92.277 127.053 87.135 124.717C87.533 132.434 88.873 139.888 91.84 146.16C96.236 145.341 100.7 146.406 105.2 146.564C102.464 146.211 94.95 149.228 91.412 150.858C91.636 154.76 92.834 159.2 94.688 163.751C101.086 165.736 107.94 166.881 114.304 167.645C107.99 168.578 101.893 168.283 96.009 166.782C101.287 178.135 110.194 189.593 118.05 194.654L144.475 211.727C140.306 199.16 135.285 186.115 137.346 172.387C138.586 164.138 141.419 156.294 142.441 148.151C136.037 151.681 129.606 155.008 123.061 157.571C129.593 153.355 136.291 150.257 142.711 145.285C142.955 141.622 142.776 137.885 141.833 134.008C136.36 135.54 130.141 139.888 124.321 140.338C130.183 135.444 136.515 131.257 142.953 126.61C142.122 121.109 141.871 115.3 141.379 109.596C136.034 112.895 130.54 115.901 124.51 117.845C130.422 114.403 136.334 110.96 140.995 105.726C140.585 102.163 140.007 98.6795 139.045 95.3815C132.51 97.7695 127.155 103.369 119.193 101.907C125.074 100.433 129.585 96.5005 133.662 92.2925C138.104 87.7085 138.546 84.2725 139.319 77.0105C139.744 73.0105 139.835 68.9525 139.666 64.9025C134.087 69.3415 128.832 73.8465 122.061 76.4985C127.608 70.5385 134.583 66.6225 139.365 60.3325C138.822 54.4545 137.734 48.6505 136.207 43.1425C130.959 43.6735 127.198 43.1605 121.962 45.0975C125.041 41.6985 130.581 39.3545 134.611 37.1055C133.24 31.0505 135.894 24.5525 135.664 18.4025C135.429 12.1395 132.049 6.12749 132.52 0.000488281C128.741 2.46749 124.71 5.17349 121.808 8.73049" fill="#8EC100"/>
</g>
<path fill-rule="evenodd" clip-rule="evenodd" d="M141.237 209.434L118.201 194.55C110.344 189.489 101.437 178.032 96.1597 166.678C102.043 168.18 108.14 168.474 114.455 167.542C108.091 166.778 101.238 165.632 94.8377 163.647C92.9847 159.096 91.7867 154.656 91.5607 150.754C95.0987 149.123 102.614 146.107 105.35 146.461C100.85 146.303 96.3847 145.237 91.9907 146.057C89.0237 139.785 87.6837 132.33 87.2847 124.614C92.4257 126.95 97.9017 128.606 103.624 128.897C97.4357 127.423 92.0697 124.844 87.1737 121.626C86.9707 112.108 88.0487 102.371 89.1707 94.1052C95.7607 95.4492 101.376 98.4702 108.29 98.7432C103.839 95.7992 92.7587 88.7002 90.3897 84.0212C88.4847 80.2592 89.5977 74.8322 90.9627 70.2002C94.9077 75.1992 100.383 79.0812 106.27 82.4072C100.835 78.3712 95.2587 73.3502 91.9627 66.9962C92.1897 66.2952 92.4057 65.6322 92.5927 65.0252C94.1717 59.9392 96.0687 55.0212 98.1627 50.2052C103.151 54.4282 108.682 57.9182 115.377 59.8432C109.442 56.4892 103.927 52.5712 99.5117 47.1692C104.082 37.1322 109.422 27.4902 114.478 17.6692C116.988 18.5542 119.117 19.5442 121.359 20.7632C119.942 15.2552 117.159 14.5052 121.959 8.62617C124.784 5.16417 128.675 2.51117 132.366 0.097168C128.317 10.0632 118.525 35.8092 116.61 56.1322C114.182 81.8922 115.396 105.212 117.766 128.976C119.976 151.13 114.098 171.977 141.237 209.434" fill="#A2CE00"/>
<mask id="mask1_1924_8217" style="mask-type:alpha" maskUnits="userSpaceOnUse" x="0" y="43" width="145" height="212">
<path fill-rule="evenodd" clip-rule="evenodd" d="M0 43.0005H144.015V254.974H0V43.0005Z" fill="white"/>
</mask>
<g mask="url(#mask1_1924_8217)">
<path fill-rule="evenodd" clip-rule="evenodd" d="M1.35167 43.0005C9.79567 45.1285 18.3337 46.8545 26.7537 49.0045C27.9617 54.9885 27.8457 61.0605 30.5107 66.9475C30.9617 60.9635 30.0637 55.7745 30.6317 50.0245C33.9077 50.9235 37.1557 51.9075 40.3707 53.0275C40.3377 60.5295 40.1617 68.0395 41.3367 75.4605C44.3757 69.0135 45.5187 62.2245 47.0127 55.5765C52.6937 57.9765 58.2267 60.9305 63.5367 64.7315C67.3927 67.4915 71.0557 70.5725 74.5897 73.8455C73.7457 82.7345 70.2437 90.8915 71.7047 100.114C72.0547 92.1795 75.5077 85.5425 79.3597 78.4515C86.6327 85.7535 93.4067 93.7235 100.168 101.299C111.844 114.378 121.648 126.632 129.196 142.55C126.832 149.195 122.091 155.37 120.998 162.497C124.509 157.663 128.667 153.932 132.533 150.083C135.717 157.801 138.231 165.619 140.094 173.511C136.331 178.209 133.199 183.459 128.827 187.625C132.86 184.824 136.949 182.716 141.605 180.692C143.067 188.619 143.855 196.614 144.005 204.653C140.91 208.062 137.513 210.959 134.748 214.931C137.835 213.121 140.925 211.31 144.015 209.499C143.817 223.638 141.618 237.896 137.396 252.15C136.444 252.918 136.773 251.831 136.15 251.433L134.333 254.974C135.767 244.583 126.341 226.571 122.03 216.273C118.733 208.395 115.022 200.021 110.383 192.249C114.915 191.537 119.645 190.999 123.854 190.007C119.093 188.764 113.821 188.749 108.931 189.884C106.98 186.803 104.873 183.834 102.564 181.059C107.679 179.805 112.543 179.475 117.999 179.112C111.893 176.962 105.272 177.672 99.0277 177.079C88.5357 165.864 78.8097 154.108 68.3197 142.766C78.2267 139.014 89.3527 143.057 100.165 142.337C88.8777 138.838 77.0327 137.499 65.2847 139.424C59.9527 133.458 55.1277 127.64 48.8937 122.512C45.6887 119.876 42.3267 117.185 39.0457 114.384C47.7907 113.723 56.5527 114.905 64.2127 110.872C54.8517 110.646 45.4907 110.425 36.2457 111.938C33.8667 109.815 31.5707 107.623 29.4557 105.336C25.7807 101.362 22.5317 96.9755 19.5767 92.3835C27.7807 90.7455 36.0547 90.1755 44.3307 89.6255C36.0817 88.5385 27.4037 90.7345 19.0127 91.5005C15.2297 85.5135 11.9327 79.2065 8.85567 73.0245C6.74767 68.7875 4.03567 64.2685 2.17067 59.5995C6.64767 59.3015 11.1227 59.0035 15.5987 58.7055C10.9437 57.4905 5.76367 56.8745 0.810671 55.5495C-0.283329 51.4225 -0.423329 47.2105 1.35167 43.0005" fill="#4FA111"/>
</g>
<mask id="mask2_1924_8217" style="mask-type:alpha" maskUnits="userSpaceOnUse" x="0" y="43" width="137" height="212">
<path fill-rule="evenodd" clip-rule="evenodd" d="M0 43H136.391V254.974H0V43Z" fill="white"/>
</mask>
<g mask="url(#mask2_1924_8217)">
<path fill-rule="evenodd" clip-rule="evenodd" d="M36.2453 111.938C33.8663 109.815 31.5703 107.624 29.4553 105.337C25.7803 101.363 22.5313 96.975 19.5763 92.383C27.7803 90.745 36.0553 90.175 44.3313 89.625C36.0823 88.539 27.4033 90.734 19.0133 91.5C15.2293 85.514 11.9333 79.206 8.85527 73.024C6.74827 68.788 4.03527 64.268 2.17127 59.599C6.64727 59.301 11.1223 59.003 15.5993 58.706C10.9433 57.49 5.76427 56.874 0.810272 55.549C-0.282728 51.422 -0.423728 47.21 1.35127 43C2.49627 43.289 3.64527 43.557 4.79427 43.832C17.1803 55.208 32.3663 78.591 57.0193 94.004C85.1823 111.608 82.9933 106.867 103.67 135.552C131.093 173.509 135.714 228.488 136.391 251.69C136.33 251.594 136.257 251.502 136.149 251.433L134.333 254.974C135.766 244.583 126.341 226.571 122.029 216.274C118.732 208.395 115.021 200.021 110.383 192.25C114.914 191.538 119.644 191 123.853 190.008C119.093 188.764 113.82 188.749 108.931 189.885C106.979 186.804 104.872 183.835 102.563 181.059C107.679 179.805 112.543 179.476 117.999 179.112C111.892 176.962 105.271 177.673 99.0273 177.079C88.5353 165.864 78.8093 154.108 68.3193 142.767C78.2263 139.015 89.3523 143.057 100.164 142.338C88.8783 138.838 77.0323 137.5 65.2843 139.425C59.9523 133.458 55.1283 127.641 48.8933 122.513C45.6883 119.877 42.3263 117.185 39.0463 114.384C47.7913 113.724 56.5533 114.905 64.2133 110.873C54.8513 110.646 45.4903 110.425 36.2453 111.938" fill="#4D9311"/>
</g>
</svg>
