<svg id="Capa_1" data-name="Capa 1" xmlns="http://www.w3.org/2000/svg" viewBox="0 0 53.92 72.93"><defs><style>.cls-1{fill:#845630;}.cls-2{fill:#936037;}.cls-3{fill:#f7daa2;}.cls-4{fill:#6b2a20;}.cls-5{fill:#351e1c;}</style></defs><path class="cls-1" d="M117.15,123.8c-5.71-4-18.59-8-8.79-17.65,3.37-3.32,8-6.78,8.62-11.88,1.17-9.07-7-15.63-15.69-14.4-5.57.8-2.14,10.62,3.08,7.3,4.57-2.91,6.71,4.56,6.81,7.1.19,4.52-4.71,7.47-7.44,10.21-2.55,2.55-2.76,6-2.35,9.35.9,7.31,8.83,10.4,15.12,11.46A.82.82,0,0,0,117.15,123.8Z" transform="translate(-98.44 -55.62)"/><path class="cls-1" d="M136.44,124.77c-.29,2,5.33-1,7.48-.35,1.58.48,0,3.08,0,3.08h-15s-2.18-6.94-1.57-8.43,8.06-13.48,11.9-11.89S136.67,123.18,136.44,124.77Z" transform="translate(-98.44 -55.62)"/><path class="cls-1" d="M110.81,124.77c.29,2-5.33-1-7.48-.35-1.58.48,0,3.08,0,3.08h15s2.19-6.94,1.57-8.43-8.06-13.48-11.9-11.89S110.58,123.18,110.81,124.77Z" transform="translate(-98.44 -55.62)"/><path class="cls-2" d="M126.39,85.31l-5.37,0s2.61,3.62.61,4.91c.76,1.9,3.5,1.29,4.76.34C125.09,88.61,126.39,85.31,126.39,85.31Z" transform="translate(-98.44 -55.62)"/><path class="cls-2" d="M135,122.66c0,4.75-5.08,5.89-11.33,5.89s-11.34-1.14-11.34-5.89c0-3.26,1.88-32.93,11.37-32.93S135,119.4,135,122.66Z" transform="translate(-98.44 -55.62)"/><path class="cls-3" d="M131,120a7.27,7.27,0,1,1-14.53,0c0-2.65,2.68-24.21,7.29-24.21C127.92,95.83,131,117.39,131,120Z" transform="translate(-98.44 -55.62)"/><path class="cls-2" d="M148.83,74.32c-.85.85-.34,4.12-.34,4.12s-5.59,7.59-8.09,9c-1.77,1-14,3-14,3l3.44,5.37s10.74-5.6,12.31-6.45c2.48-1.33,7.77-11.1,7.77-11.1s2.17-1.14,2.43-2.66S149.68,73.48,148.83,74.32Z" transform="translate(-98.44 -55.62)"/><path class="cls-2" d="M108.36,118.45c.39-1.13-1.49-3.85-1.49-3.85s1.69-9.27,3.33-11.61c1.16-1.66,9.87-5.33,9.87-5.33l1-7s-12.2,9.92-13.24,11.36c-1.65,2.29-2.12,13.39-2.12,13.39s-1.45,2-1,3.45S108,119.58,108.36,118.45Z" transform="translate(-98.44 -55.62)"/><path class="cls-2" d="M142.35,60.39A3.64,3.64,0,0,1,139,64.76c-2.51.31-7.57,1.43-7.84-.76s4.38-6.85,6.89-7.15A3.7,3.7,0,0,1,142.35,60.39Z" transform="translate(-98.44 -55.62)"/><path class="cls-4" d="M140.39,60.6a2.41,2.41,0,0,1-2.27,2.51c-1.4.17-4.23.79-4.38-.43s2.45-3.82,3.85-4A2.41,2.41,0,0,1,140.39,60.6Z" transform="translate(-98.44 -55.62)"/><path class="cls-2" d="M106.27,60.5c-.26,2.19.6,4,3.11,4.26s7.57,1.43,7.83-.76-4.37-6.85-6.88-7.15S106.53,58.32,106.27,60.5Z" transform="translate(-98.44 -55.62)"/><path class="cls-4" d="M108,60.6a2.41,2.41,0,0,0,2.27,2.51c1.4.17,4.23.79,4.38-.43s-2.45-3.82-3.85-4A2.41,2.41,0,0,0,108,60.6Z" transform="translate(-98.44 -55.62)"/><path class="cls-2" d="M138.79,69.9c0,9.68-5,17.52-14.36,17.52-9.11,0-14.35-7.84-14.35-17.52,0-5.06,3.66-11.17,3.66-11.17a19,19,0,0,1,10.73-3.11A18.11,18.11,0,0,1,135,58.67S138.79,64.79,138.79,69.9Z" transform="translate(-98.44 -55.62)"/><path class="cls-3" d="M136.19,69.07c-4.49-9.52-11.76,0-11.76,0s-8.51-10.4-11.75,0c-1.22,3.93,1.22,5.78,4.9,6.62.1,5.84,1.08,10.42,6.85,10.42,6,0,6.8-4.7,6.87-10.65C135.14,74.27,137.54,72,136.19,69.07Z" transform="translate(-98.44 -55.62)"/><path class="cls-5" d="M126.39,76c0,.73-1.92,1.91-1.92,1.91s-1.92-1.18-1.92-1.91.86-.41,1.92-.41S126.39,75.26,126.39,76Z" transform="translate(-98.44 -55.62)"/><path class="cls-5" d="M129.83,72.65a1,1,0,1,1-1-1A1,1,0,0,1,129.83,72.65Z" transform="translate(-98.44 -55.62)"/><path class="cls-5" d="M121,72.65a1,1,0,1,1-1-1A1,1,0,0,1,121,72.65Z" transform="translate(-98.44 -55.62)"/><polygon class="cls-5" points="26.39 21.37 26.03 25.3 25.67 21.37 26.39 21.37"/><path class="cls-1" d="M124.47,119.65c0,.43-.21.78-.46.78s-.46-.35-.46-.78.2-.77.46-.77S124.47,119.23,124.47,119.65Z" transform="translate(-98.44 -55.62)"/></svg>