<svg width="348" height="181" viewBox="0 0 348 181" fill="none" xmlns="http://www.w3.org/2000/svg">
<path fill-rule="evenodd" clip-rule="evenodd" d="M9.10426 32.3178C-6.82152 58.0937 0.832774 80.8901 11.6531 113.523C15.6769 125.659 9.59111 134.285 11.6531 146.435C13.783 158.985 24.8989 166.905 27.1589 167.96C37.5925 172.832 50.7328 172.832 62.5828 173.373C148.676 177.31 240.835 190.17 326.434 165.013C328.787 164.322 336.163 157.074 336.163 146.435C336.163 133.795 334.384 125.933 336.163 113.523C338.514 97.1191 364.593 54.6288 326.434 20.9086C314.084 9.99505 293.911 6.16602 269.592 6.16602C239.858 6.16602 208.343 6.16602 179.632 6.16602C27.159 6.16602 9.10426 32.3178 9.10426 32.3178Z" fill="#EFEFEF"/>
<path fill-rule="evenodd" clip-rule="evenodd" d="M9.10426 26.3178C-6.82152 52.0937 0.832774 74.8901 11.6531 107.523C15.6769 119.659 9.59111 128.285 11.6531 140.435C13.783 152.985 24.8989 160.905 27.1589 161.96C37.5925 166.832 50.7328 166.832 62.5828 167.373C148.676 171.31 240.835 184.17 326.434 159.013C328.787 158.322 336.163 151.074 336.163 140.435C336.163 127.795 334.384 119.933 336.163 107.523C338.514 91.1191 364.593 48.6288 326.434 14.9086C314.084 3.99505 293.911 0.166016 269.592 0.166016C239.858 0.166016 208.343 0.166016 179.632 0.166016C27.159 0.166016 9.10426 26.3178 9.10426 26.3178Z" fill="white"/>
</svg>
